# xmcd CD database file
#
# Track frame offsets:
#	225
#	16125
#	35700
#	49275
#	60150
#	74250
#	86100
#	99150
#	111450
#	123150
#	142575
#	161550
#	177525
#	198900
#	212325
#	224850
#	242024
#	254924
#	270824
#	291974
#	307649
#	321673
#
# Disc length: 4512 seconds
#
# Revision: 0
# Processed by: cddbd v1.5.2PL0 Copyright (c) Steve Scherf et al.
# Submitted via: CDex 1.70beta2
#
DISCID=43119d16
DTITLE=Daniel T. Coates - When I Wanna Fall
DYEAR=2014
DGENRE=Country
TTITLE0=Easy Come, Easy Go
TTITLE1=When I Wanna Fall
TTITLE2=Crying My Heart Out Over You
TTITLE3=Wake Up Little Susie
TTITLE4=Choices
TTITLE5=Another Town
TTITLE6=Layla
TTITLE7=Honey Open That Door
TTITLE8=Good Night To Fall In Love
TTITLE9=Down On The Corner
TTITLE10=Cheyenne
TTITLE11=You Better Treat Your Man Right
TTITLE12=Maybe She'll Dance With Me
TTITLE13=There's A Road
TTITLE14=Northside Gal
TTITLE15=Just Breathe
TTITLE16=Thinkin' Bout The Girl
TTITLE17=Dangerous
TTITLE18=Lorena
TTITLE19=WeWent Out Last Night
TTITLE20=People Are Crazy
TTITLE21=Low And Lonely
EXTD=YEAR: 2014
EXTT0=
EXTT1=
EXTT2=
EXTT3=
EXTT4=
EXTT5=
EXTT6=
EXTT7=
EXTT8=
EXTT9=
EXTT10=
EXTT11=
EXTT12=
EXTT13=
EXTT14=
EXTT15=
EXTT16=
EXTT17=
EXTT18=
EXTT19=
EXTT20=
EXTT21=
PLAYORDER=
